<svg width="83" height="62" viewBox="0 0 83 62" fill="none" xmlns="http://www.w3.org/2000/svg">
<path fill-rule="evenodd" clip-rule="evenodd" d="M18.3388 8.79466C18.4754 7.7609 18.585 6.6395 18.7269 5.61985C18.7763 5.26432 18.8127 4.92141 18.8562 4.56605L18.9537 3.77627C18.9716 3.64806 18.9542 3.54186 19.0151 3.54186H20.884L21.0293 4.72757C21.0782 5.12688 21.118 5.51332 21.1738 5.91419C21.2295 6.31449 21.2643 6.69846 21.32 7.09891C21.3757 7.4997 21.4155 7.88615 21.4645 8.28562L21.9017 11.8414C21.9255 12.0218 21.9333 11.986 21.7444 11.9855H20.7494L20.5709 10.1337C20.5617 10.0615 20.5477 9.96191 20.5477 9.87459H19.3242C19.3103 10.0415 19.2802 10.231 19.2709 10.3993C19.2544 10.6965 19.2022 11.139 19.1751 11.4599C19.161 11.6274 19.1365 11.8182 19.1226 11.9855H17.9529L18.0143 11.4418C18.1329 10.585 18.2245 9.65997 18.3388 8.79491L18.3388 8.79466ZM19.5854 7.27173C19.5599 7.45188 19.5584 7.61868 19.5355 7.79999L19.4319 8.86598H20.4402L20.1347 5.36664C20.1251 5.29574 20.1185 5.16769 20.1175 5.10132C20.1152 4.92908 20.0773 4.73969 20.0773 4.56358H19.8218C19.7665 4.56358 19.7802 4.61387 19.7811 4.67093L19.7537 5.08722C19.7141 5.60377 19.6575 6.22173 19.6334 6.72814L19.5854 7.27181V7.27173ZM27.9155 7.75002C27.9155 8.45118 27.9333 9.14829 27.9419 9.84804C27.943 9.93362 27.9561 9.99884 27.956 10.103C27.9557 10.301 27.9598 10.6707 28.0319 10.8203C28.1692 11.1058 28.479 11.1248 28.7895 11.1248H34.8128C34.9841 11.1248 35.1527 11.1146 35.2817 11.0694C35.3802 11.0347 35.4519 10.983 35.5141 10.8984C35.6516 10.7112 35.6296 10.3498 35.6325 10.1158C35.6334 10.0324 35.6467 9.97526 35.6465 9.87443C35.645 9.21507 35.6734 8.49487 35.6734 7.83074C35.6734 7.64391 35.66 7.50655 35.66 7.31988L35.6465 5.7737C35.6466 5.59783 35.6329 5.45025 35.633 5.26284C35.6334 4.75041 35.5753 4.40239 34.9474 4.40239H28.6283C28.291 4.40239 28.0694 4.53192 27.9985 4.79452C27.9738 4.88637 27.9553 5.16917 27.9558 5.26267C27.9568 5.44184 27.9424 5.58019 27.9426 5.7469C27.9433 6.39826 27.9156 7.09199 27.9156 7.7501L27.9155 7.75002ZM58.1283 7.01275L57.9515 8.86598H58.9598L58.9065 8.32775C58.8809 7.86446 58.7946 7.32623 58.7715 6.84926C58.7687 6.78997 58.7597 6.79344 58.758 6.72838C58.7559 6.64898 58.751 6.53158 58.739 6.45168L58.6159 4.82693C58.606 4.76064 58.5968 4.62591 58.5968 4.56366H58.3143C58.3025 4.61478 58.2885 4.77317 58.2872 4.83228L58.233 5.65192C58.1997 6.07596 58.172 6.59729 58.1283 7.01284L58.1283 7.01275ZM62.2268 4.56358V7.93825H62.5899C63.2495 7.93825 63.4384 7.73271 63.437 7.11813C63.4367 7.00913 63.4507 6.94251 63.4508 6.84975V5.63881C63.4507 5.54795 63.4366 5.48941 63.437 5.38379C63.4395 4.4888 62.9854 4.56358 62.2268 4.56358ZM22.4704 8.86598H23.5191C23.5815 8.86598 23.5456 8.94612 23.5457 9.02701C23.5457 9.09338 23.5506 9.17739 23.5452 9.2417C23.5147 9.61215 23.5411 10.0276 23.5455 10.3991C23.551 10.8679 23.7558 11.1306 24.2434 11.1191C24.8129 11.1055 24.8517 10.8061 24.902 10.3564C24.9108 10.2783 24.8971 10.1973 24.9076 10.12C24.933 9.93486 24.9034 9.70375 24.904 9.52476L24.8886 9.16362C24.8676 8.96863 24.8112 8.70545 24.7182 8.58112C24.4 8.15625 23.2007 8.36312 22.7096 7.57803C22.3456 6.99593 22.4166 6.07818 22.4166 5.35683C22.4166 4.77449 22.5229 4.24631 22.796 3.93465C22.8689 3.85163 22.9327 3.78385 23.0392 3.72069C23.306 3.5628 23.6729 3.48027 24.0455 3.46106H24.3901C24.6543 3.47466 24.9064 3.51919 25.1109 3.59026C25.3302 3.66644 25.502 3.79152 25.6343 3.95428C26.1343 4.57009 25.9931 5.75473 25.9931 6.59366H24.8906C24.8906 6.30525 24.9041 6.0626 24.9041 5.77353C24.9041 5.43573 24.9443 4.84292 24.7777 4.62261C24.588 4.37164 24.1214 4.35251 23.8594 4.47346C23.7613 4.51889 23.6996 4.59161 23.6536 4.68445C23.6024 4.78718 23.5799 4.88052 23.5629 5.01054C23.5542 5.0779 23.5576 5.1559 23.5498 5.21254C23.541 5.27661 23.5461 5.34537 23.5461 5.41067C23.5461 5.87338 23.5099 6.45952 23.6747 6.85519C23.8965 7.38807 24.8572 7.13808 25.5051 7.68678C25.9466 8.06036 26.0469 8.7879 26.0469 9.41724C26.0469 10.4212 26.1189 11.5403 25.1752 11.92C24.964 12.005 24.6943 12.0525 24.4152 12.0658H24.0816C23.8182 12.0533 23.5638 12.0116 23.3595 11.9433C22.9553 11.8083 22.7353 11.5454 22.5893 11.1537C22.4068 10.6637 22.4361 9.84524 22.4431 9.28219C22.4442 9.1952 22.4707 9.02222 22.4707 8.8659L22.4704 8.86598ZM26.8509 10.7104C26.8095 10.3707 26.8113 9.9746 26.8131 9.61883C26.8138 9.49301 26.7995 9.39481 26.7995 9.25589C26.7997 8.76308 26.79 8.23186 26.79 7.76346C26.79 7.29506 26.7995 6.76392 26.7995 6.2712C26.7995 6.02369 26.813 5.79266 26.813 5.53179C26.813 4.91523 26.8457 4.1961 27.3354 3.79539C27.6249 3.55827 28.1153 3.46123 28.5071 3.46123H35.0683C35.6276 3.46123 36.2436 3.60865 36.5247 4.11563C36.607 4.26387 36.6695 4.44691 36.7076 4.63177C36.7365 4.77168 36.7579 4.95753 36.7619 5.11542C36.7637 5.1841 36.7761 5.19811 36.7762 5.27586C36.7765 5.39245 36.7762 5.50953 36.7756 5.62603C36.7751 5.74129 36.7892 5.83215 36.7892 5.96193C36.7892 6.43354 36.8028 6.86913 36.8028 7.34676L36.7892 9.59212C36.7893 9.72379 36.7752 9.80278 36.7757 9.92818C36.7771 10.2985 36.7715 10.5411 36.705 10.906C36.6402 11.262 36.4749 11.5793 36.1842 11.7836C35.9319 11.9611 35.5016 12.0659 35.0683 12.0659H28.5071C27.5448 12.0659 26.9675 11.6675 26.851 10.7104H26.8509ZM37.6663 10.9332C37.573 10.5356 37.5686 9.79766 37.5819 9.34947L37.6083 8.99938C37.6125 8.93639 37.5876 8.8659 37.6495 8.8659H38.6982C38.6982 8.96797 38.6841 9.01274 38.6845 9.10764L38.6713 9.59203C38.672 9.86643 38.6679 10.5212 38.7401 10.7333C38.7837 10.8619 38.8343 10.944 38.9424 11.015C39.1315 11.139 39.531 11.1468 39.7294 11.0533C40.0711 10.8925 40.0561 10.3573 40.0561 9.94146C40.0561 9.52979 40.0728 8.87373 39.8452 8.56595C39.7304 8.41094 39.5346 8.36914 39.3274 8.31736C39.118 8.265 38.9242 8.21702 38.7193 8.15906C38.4279 8.07677 38.0667 7.89637 37.8939 7.64012C37.4898 7.04103 37.5554 6.16748 37.5554 5.42394C37.5554 5.01367 37.597 4.50504 37.7882 4.16444C37.8325 4.08554 37.8471 4.04258 37.9162 3.95634C38.0515 3.7874 38.2324 3.66537 38.4611 3.58696C38.6764 3.51309 38.9671 3.46106 39.2495 3.46106C39.8036 3.46106 40.3756 3.49742 40.7585 3.92839C41.2131 4.43974 41.1452 5.38577 41.1452 6.09632C41.1452 6.27928 41.1317 6.41202 41.1317 6.59366H40.0293C40.0293 6.21884 40.0831 5.07246 40.0042 4.80359C39.9727 4.69575 39.9146 4.59582 39.8304 4.53373L39.6648 4.44403C39.4159 4.35449 38.9293 4.37147 38.7787 4.71141C38.6642 4.96998 38.6838 5.58266 38.6843 5.93538C38.6844 6.01626 38.6978 6.03292 38.6987 6.10919C38.7022 6.4023 38.714 6.6602 38.8457 6.91687C39.0979 7.40843 40.4663 7.11565 40.9346 8.05459C41.0993 8.38472 41.1855 8.8335 41.1855 9.323C41.1855 9.84524 41.2064 10.3916 41.1083 10.8861C41.054 11.1595 40.9764 11.3255 40.8335 11.5391C40.5767 11.9222 39.9682 12.0658 39.4914 12.0658C38.5579 12.0658 37.8947 11.9067 37.6661 10.9332H37.6663ZM42.2584 11.504C42.0729 11.2267 41.9746 10.832 41.9649 10.5067L41.9385 6.94325L41.9513 5.28906C41.9523 5.21427 41.9652 5.20339 41.9659 5.12886C41.97 4.72287 42.0783 4.30032 42.3265 3.9969C42.3436 3.97604 42.3538 3.96796 42.3706 3.94702C42.5063 3.778 42.7092 3.66628 42.9122 3.58779C43.334 3.42453 44.1704 3.42338 44.5603 3.56866C44.6864 3.61565 44.9078 3.70379 45.0072 3.79391C45.094 3.87265 45.1497 3.91363 45.222 4.02296C45.3218 4.17384 45.3822 4.29685 45.4358 4.4813C45.5839 4.98985 45.5417 5.69174 45.5417 6.2576C45.5417 6.38844 45.5282 6.46487 45.5282 6.59366H44.3854L44.3989 5.20892C44.3989 4.90616 44.3813 4.641 44.141 4.49886C44.0754 4.46011 43.9815 4.42976 43.8981 4.41896C43.499 4.36727 43.1915 4.47709 43.1154 4.89338L43.0943 5.19506C43.0911 5.30011 43.0946 5.41215 43.0946 5.5181C43.0948 5.64062 43.0804 5.71656 43.081 5.82721L43.0678 6.78198C43.0678 7.44265 43.0468 8.3881 43.0812 9.02717L43.0807 9.72676C43.0809 9.81341 43.0953 9.84705 43.0948 9.94121C43.0912 10.5731 43.0281 11.1246 43.7669 11.1246C44.2565 11.1246 44.439 10.8754 44.439 10.3852V8.87934H45.5819C45.5819 9.3366 45.6124 10.2048 45.5574 10.6431C45.5193 10.9477 45.4445 11.2243 45.3104 11.4314C45.2363 11.546 45.1723 11.6277 45.0678 11.7131C45.0121 11.7587 44.98 11.7782 44.9178 11.8185C44.6894 11.9665 44.2946 12.0503 43.8832 12.0658H43.604C43.2019 12.0507 42.8165 11.9696 42.5888 11.8188C42.4418 11.7214 42.3558 11.6498 42.2582 11.5039L42.2584 11.504ZM46.4156 11.9447V3.5821C46.4156 3.55118 46.425 3.54178 46.456 3.54178H47.5585V7.19876H48.782V3.54178H49.9247V11.9851H48.782V8.22048H47.5585V11.9851H46.456C46.425 11.9851 46.4156 11.9757 46.4156 11.9447ZM50.9062 11.9851V3.54178H52.0088C52.0397 3.54178 52.0491 3.55118 52.0491 3.5821V11.9447C52.0491 11.9757 52.0397 11.9851 52.0088 11.9851H50.9062ZM53.0171 11.9851V3.54178H54.16V10.9633H56.0423V11.9851H53.0171ZM57.2482 5.62174L57.49 3.64492C57.4959 3.59034 57.479 3.54178 57.5347 3.54178H59.4035C59.4053 3.62266 59.4316 3.75978 59.4413 3.84L59.5501 4.72609C59.5693 4.92974 59.5953 5.12152 59.6227 5.32583C59.7015 5.91444 59.7593 6.51871 59.8395 7.09891C59.8949 7.49946 59.935 7.88483 59.984 8.28545C60.0318 8.67428 60.0853 9.0759 60.1295 9.47108C60.1518 9.66995 60.1743 9.8642 60.2024 10.0704C60.2832 10.6626 60.3398 11.2513 60.4213 11.8414C60.4459 12.0198 60.4533 11.9859 60.264 11.9853H59.269C59.2554 11.8212 59.2225 11.6277 59.2154 11.4608C59.2082 11.2931 59.1803 11.0956 59.1637 10.9344L59.0674 9.87443H57.844L57.7653 10.6697C57.7557 10.7618 57.757 10.8394 57.744 10.9308L57.6956 11.4605C57.6862 11.6287 57.6561 11.8183 57.6422 11.9852H56.4725L56.728 9.8609C56.7671 9.50901 56.8123 9.13914 56.8584 8.79466C56.9061 8.43798 56.9403 8.09788 56.9876 7.74062C57.0792 7.0459 57.1566 6.31581 57.2483 5.62182L57.2482 5.62174ZM61.0841 11.9447V3.5821C61.0841 3.55118 61.0935 3.54178 61.1244 3.54178H62.5362C62.9125 3.54178 63.2623 3.56297 63.5629 3.64435C64.4194 3.87677 64.5826 4.67497 64.5797 5.45091C64.5792 5.56147 64.594 5.61515 64.5933 5.71961C64.5928 5.81369 64.5932 5.90801 64.5932 6.00208C64.5932 6.79913 64.6681 7.85391 64.2245 8.41663C64.1346 8.5309 63.9396 8.71229 63.8 8.74478C63.8051 8.80752 63.8376 8.89764 63.8553 8.95841C63.874 9.02247 63.8917 9.08629 63.9121 9.15695C63.9829 9.40166 64.7078 11.9099 64.7141 11.9851H63.5042L62.805 9.29604C62.7886 9.23057 62.7745 9.17286 62.7567 9.10228C62.7341 9.01225 62.7314 8.94645 62.684 8.94645H62.2268V11.9851H61.1243C61.0934 11.9851 61.084 11.9757 61.084 11.9447L61.0841 11.9447ZM68.6038 0.955078H14.0632C13.1556 0.955078 12.4131 1.69746 12.4131 2.60507V12.922C12.4131 13.8295 13.1555 14.5721 14.0632 14.5721H68.6038C69.5114 14.5721 70.2539 13.8296 70.2539 12.922V2.60507C70.2539 1.69754 69.5115 0.955078 68.6038 0.955078Z" fill="white"/>
<path d="M14.88 48.6578H18.4622C19.3807 48.6578 19.8399 49.1171 19.8399 50.0356V54.2241C19.8399 59.0004 17.4518 61.3885 12.6755 61.3885H7.1644C2.38808 61.3885 0 59.0003 0 54.2241V24.464C0 19.6876 2.38816 17.2996 7.1644 17.2996H12.6755C17.4518 17.2996 19.8399 19.6877 19.8399 24.464V28.6525C19.8399 29.571 19.3807 30.0302 18.4622 30.0302H14.88C13.9615 30.0302 13.5022 29.571 13.5022 28.6525V27.3849C13.5022 25.805 13.3001 24.7855 12.896 24.3263C12.4918 23.867 11.4998 23.6374 9.91996 23.6374C8.56044 23.6374 7.62365 23.8486 7.10924 24.2712C6.59484 24.6937 6.33768 25.7316 6.33768 27.3849V51.3031C6.33768 52.9564 6.59484 53.9945 7.10924 54.4169C7.62356 54.8394 8.56044 55.0506 9.91996 55.0506C10.618 55.0506 11.1231 55.0323 11.4355 54.9956C11.7478 54.9589 12.0969 54.8303 12.4826 54.6098C12.8684 54.3894 13.1348 54.0128 13.2817 53.48C13.4286 52.9473 13.5022 52.2216 13.5022 51.3031V50.0356C13.5022 49.1171 13.9615 48.6578 14.88 48.6578ZM22.0449 59.4597V18.6773C22.0449 17.7588 22.5041 17.2996 23.4226 17.2996H27.0048C27.9233 17.2996 28.3825 17.7588 28.3825 18.6773V53.3974C28.3825 54.0219 28.502 54.4537 28.7408 54.6925C28.9797 54.9313 29.4113 55.0507 30.0359 55.0507H36.1533C37.0718 55.0507 37.531 55.51 37.531 56.4285V60.0107C37.531 60.9292 37.0718 61.3885 36.1533 61.3885H23.9737C23.2389 61.3885 22.7337 61.2507 22.4581 60.9752C22.1826 60.6996 22.0449 60.1945 22.0449 59.4597ZM52.7421 50.752V18.6773C52.7421 17.7588 53.2014 17.2996 54.1199 17.2996H57.7021C58.6206 17.2996 59.0799 17.7588 59.0799 18.6773V54.2241C59.0799 59.0004 56.6917 61.3885 51.9155 61.3885H46.3492C41.5729 61.3885 39.1848 59.0003 39.1848 54.2241V18.6773C39.1848 17.7588 39.6441 17.2996 40.5625 17.2996H44.1447C45.0632 17.2996 45.5226 17.7588 45.5226 18.6773V50.752C45.5226 52.4422 45.7797 53.5811 46.2941 54.1689C46.8084 54.7568 47.6903 55.0507 48.9395 55.0507H49.2701C50.5927 55.0507 51.5021 54.766 51.9981 54.1965C52.494 53.6271 52.7421 52.479 52.7421 50.752ZM62.3871 59.4597V19.2285C62.3871 18.4937 62.5249 17.9884 62.8004 17.7129C63.076 17.4374 63.5812 17.2996 64.316 17.2996H74.5667C79.343 17.2996 81.7311 19.6877 81.7311 24.464V34.1636C81.7311 35.0454 81.4188 36.1108 80.7941 37.36C80.6104 37.6907 80.6472 38.0031 80.9044 38.297C82.0801 39.5461 82.668 41.0158 82.668 42.7058V54.2241C82.668 59.0004 80.2798 61.3885 75.5036 61.3885H64.316C63.0301 61.3885 62.3871 60.7456 62.3871 59.4597ZM72.9132 41.6036H70.3782C69.7536 41.6036 69.3219 41.723 69.083 41.9619C68.8443 42.2007 68.7248 42.6324 68.7248 43.257V53.3974C68.7248 54.022 68.8443 54.4538 69.083 54.6926C69.3219 54.9314 69.7535 55.0508 70.3782 55.0508H72.3071C73.7767 55.0508 74.8147 54.8304 75.4209 54.3895C76.0271 53.9486 76.3301 52.9198 76.3301 51.3032V45.3512C76.3301 43.8449 76.0638 42.8528 75.5311 42.3752C74.9983 41.8976 74.1257 41.6404 72.9132 41.6036ZM71.3702 23.6374H70.3782C69.7536 23.6374 69.3219 23.7568 69.083 23.9956C68.8443 24.2344 68.7248 24.6661 68.7248 25.2908V33.6125C68.7248 34.2004 68.8443 34.6229 69.083 34.8801C69.3219 35.1373 69.7535 35.2658 70.3782 35.2658H71.3702C72.8399 35.2658 73.8777 35.0454 74.4839 34.6045C75.0902 34.1636 75.3932 33.1348 75.3932 31.5182V27.3848C75.3932 25.7682 75.0902 24.7395 74.4839 24.2986C73.8777 23.8577 72.8398 23.6374 71.3702 23.6374Z" fill="white"/>
</svg>
